<svg xmlns="http://www.w3.org/2000/svg" viewBox="0 0 503.65 102.17"><defs><style>.cls-1{fill:#5304bf;}.cls-2{fill:#ae62f8;}</style></defs><title>ok</title><g id="OBJECTS"><path class="cls-1" d="M240.32,287.28c0,19.51,11.86,35.34,26.49,35.34a21.62,21.62,0,0,0,13.26-4.73c-7.93-6.11-13.26-17.53-13.26-30.61s5.33-24.5,13.26-30.61a21.62,21.62,0,0,0-13.26-4.73C252.18,251.94,240.32,267.76,240.32,287.28Z" transform="translate(-77.39 -223.82)"/><path class="cls-2" d="M280.07,256.67c5.56,4.29,9.84,11.22,11.89,19.49a12.43,12.43,0,1,0,2.71,0c2.05-8.28,6.33-15.2,11.9-19.49a20.92,20.92,0,0,0-26.5,0Z" transform="translate(-77.39 -223.82)"/><path class="cls-1" d="M319.82,251.94a21.49,21.49,0,0,0-13.25,4.73c7.92,6.11,13.25,17.53,13.25,30.61s-5.33,24.49-13.25,30.61a21.49,21.49,0,0,0,13.25,4.73c14.64,0,26.5-15.83,26.5-35.34S334.46,251.94,319.82,251.94Z" transform="translate(-77.39 -223.82)"/><path class="cls-1" d="M498.93,243.72a10.2,10.2,0,0,1-7.27-2.85,9.41,9.41,0,0,1-3-7.15,9.24,9.24,0,0,1,3.07-7,10.18,10.18,0,0,1,7.22-2.87,10,10,0,0,1,7.18,2.87,9.34,9.34,0,0,1,3,7,9.51,9.51,0,0,1-3,7.15A10.05,10.05,0,0,1,498.93,243.72Zm-9.9,78.9h19.41V254.9L489,251.54Z" transform="translate(-77.39 -223.82)"/><path class="cls-1" d="M570.85,243.72a10.24,10.24,0,0,1-7.28-2.85,9.43,9.43,0,0,1-3-7.15,9.28,9.28,0,0,1,3.07-7,10.27,10.27,0,0,1,7.23-2.87,10.1,10.1,0,0,1,7.18,2.87,9.34,9.34,0,0,1,3,7,9.49,9.49,0,0,1-3,7.15A10.05,10.05,0,0,1,570.85,243.72Zm-9.9,78.9h19.4V254.9L561,251.54Z" transform="translate(-77.39 -223.82)"/><path class="cls-1" d="M391.06,279.65v43L371.66,326V279.55q0-8.91,1.38-13.36a21.65,21.65,0,0,1,3.26-5.84A29.63,29.63,0,0,1,396,247.77l57.65-9.9v19L400.25,266q-6.22,1.1-8.3,5.64a10.07,10.07,0,0,0-.79,3.47C391.09,276.82,391.06,278.33,391.06,279.65Zm22.67,14.46a10.22,10.22,0,0,1-7.22-2.87,9.26,9.26,0,0,1-3.07-7,9.39,9.39,0,0,1,3-7.15,10.2,10.2,0,0,1,7.27-2.85,10.05,10.05,0,0,1,7.23,2.85,9.49,9.49,0,0,1,3,7.15,9.35,9.35,0,0,1-3,7A10.08,10.08,0,0,1,413.73,294.11Z" transform="translate(-77.39 -223.82)"/><path class="cls-1" d="M207.58,322.52H188l-9.41-51.78q-1.09-5.94-5.84-8-2.08-.89-8.32-.89H152.34a30.89,30.89,0,0,1,1.48,4.95L164,322.52l-19.8-.1-9.31-51.78a11.05,11.05,0,0,0-3.22-6.18,9.07,9.07,0,0,0-6.28-2.53q-4.75-.09-9.41,0-7.92.19-9.5,8.71l-9.41,51.88-19.7-.1,10.3-55.84q2.18-11.67,13-19a27.12,27.12,0,0,1,5.24-3,32.27,32.27,0,0,1,10.6-1.39h47.91q9.21,0,13.86,1.19a20,20,0,0,1,6,3q10.89,7.43,13,19Z" transform="translate(-77.39 -223.82)"/></g></svg>