<svg id="OBJECTS" xmlns="http://www.w3.org/2000/svg" viewBox="0 0 38.83 25.89"><defs><style>.cls-1{fill:#ae62f8;}.cls-2{fill:#5304bf;}</style></defs><title>icon</title><path class="cls-1" d="M28,44.88c0,7.15,4.35,12.95,9.71,12.95a7.85,7.85,0,0,0,4.85-1.74c-2.9-2.23-4.85-6.42-4.85-11.21s2-9,4.85-11.21a7.9,7.9,0,0,0-4.85-1.73C32.37,31.94,28,37.73,28,44.88Z" transform="translate(-28.02 -31.94)"/><path class="cls-2" d="M42.58,33.67a12.88,12.88,0,0,1,4.36,7.14,4.56,4.56,0,1,0,1,0,12.85,12.85,0,0,1,4.36-7.14,7.68,7.68,0,0,0-9.71,0Z" transform="translate(-28.02 -31.94)"/><path class="cls-1" d="M57.14,31.94a7.9,7.9,0,0,0-4.85,1.73c2.9,2.24,4.85,6.43,4.85,11.21s-2,9-4.85,11.21a7.85,7.85,0,0,0,4.85,1.74c5.36,0,9.71-5.8,9.71-12.95S62.5,31.94,57.14,31.94Z" transform="translate(-28.02 -31.94)"/></svg>