<svg id="Layer_1" data-name="Layer 1" xmlns="http://www.w3.org/2000/svg" viewBox="0 0 137.87 147.5"><defs><style>.cls-1{fill:#672684;}</style></defs><path class="cls-1" d="M140.8,8.6c-.3.3-3.2.9-6.4,1.4s-9.9,1.7-14.9,2.6S108,14.5,105,15s-9.8,1.6-15,2.5-11.7,2-14.5,2.5S66.7,21.5,62,22.3s-10.3,1.9-12.5,2.2A37.83,37.83,0,0,0,43,26.2c-6,2.6-9.6,4.4-10.8,5.5A4.57,4.57,0,0,1,30.1,33C29,33,19,42.5,19,43.5a4.72,4.72,0,0,1-1.4,2.4c-3.1,3.5-5.4,9.1-6.5,15.7-.9,4.8-1.1,20-.9,50.4l.3,43.5,2.5-.1c1.4-.1,5.4-.7,9-1.3s9.3-1.6,12.8-2.1a39.43,39.43,0,0,0,7.2-1.5c.6-.4,1-16.7,1-42.1,0-44.5,0-44.4,5.2-49C51.4,56.6,58.7,54,63.7,54c2.3,0,4.4-.4,4.7-.9s2.9-1.1,5.8-1.4,9.6-1.3,14.8-2.2,11.8-2.1,14.5-2.5,9.3-1.6,14.5-2.5,11.8-1.9,14.5-2.2,5.4-.9,6-1.4,2.8-.9,5.2-.9H148V8h-3.3A8.92,8.92,0,0,0,140.8,8.6Z" transform="translate(-10.13 -8)"/><path class="cls-1" d="M75,70c0,.5-.7,1-1.5,1s-3,1.5-4.8,3.4c-5.3,5.2-5.9,12.4-1.9,20.3,1.7,3.4,10.3,8.4,14.4,8.2,7.6-.2,15.3-6.6,16.4-13.4,1.3-9.1-1.5-14.9-9.3-19.3C85.6,68.8,75,68.6,75,70Z" transform="translate(-10.13 -8)"/></svg>