<svg id="Layer_1" data-name="Layer 1" xmlns="http://www.w3.org/2000/svg" viewBox="0 0 30.06 149.52"><defs><style>.cls-1{fill:#672684;}</style></defs><path class="cls-1" d="M18.1,5.1C8.8,7.9,4.8,19.9,10.6,27.5a15.36,15.36,0,0,0,13,6.5A14.51,14.51,0,0,0,36,27.3c1.9-2.7,2.2-4.2,1.8-9.3-.4-5.9-2.6-9.7-6.8-12C28.3,4.6,21.6,4.1,18.1,5.1Z" transform="translate(-7.9 -4.58)"/><path class="cls-1" d="M8.2,100.2l.3,53.3,14.3.3,14.2.3V102.5c0-28.3-.1-51.5-.2-51.5s-4.3-.8-9.3-1.6-11.4-1.8-14.3-2.1L8,46.8Z" transform="translate(-7.9 -4.58)"/></svg>