<svg id="Layer_1" data-name="Layer 1" xmlns="http://www.w3.org/2000/svg" viewBox="0 0 186.9 112.7"><defs><style>.cls-1{fill:#672684;}</style></defs><path class="cls-1" d="M59,11.8c-8.4,2.3-19.9,12.1-24.3,20.9C31.8,38.3,31.1,40.9,28,58c-1.1,6.3-2.8,15.3-3.6,20s-2.2,11.9-2.9,16c-1.9,10.8-4.4,24.1-5.1,27.2l-.6,2.8H29.9c13.8,0,14.1,0,14.5-2.3.3-1.2,1.2-6,2-10.7s2-11.2,2.7-14.5c1.2-6.3,3-16.8,5.3-30,3.4-19.6,3.9-21.4,6.5-24.5,3-3.6,7.6-5,17.1-5,16,0,19.5,3.5,22.5,22.5.9,5.5,2.3,13.4,3,17.5,2.5,13.7,4.4,24.4,5.5,30.5.6,3.3,1.5,8.4,2.1,11.3l1,5.2h28l-.6-4.8A52,52,0,0,0,138,112a64.36,64.36,0,0,1-1.9-9.5c-.6-3.9-1.9-12-3.1-18s-2.7-14.8-3.6-19.5-2.1-11.9-2.9-16-1.5-8.4-1.7-9.5c-.3-1.8.4-2,7.2-2.3,12.4-.6,21.5.6,24.2,3.1,3.4,3.1,5.4,8.1,6.8,16.7.7,4.1,1.9,10.9,2.6,15,2,10.9,4.2,22.6,5.4,29.5.6,3.3,1.8,9.7,2.7,14.2l1.6,8.3h27.4l-1.3-7.8c-.7-4.2-1.9-11.5-2.8-16.2s-2.5-13.5-3.5-19.5-2.7-14.6-3.5-19-2-10.9-2.6-14.5c-1.1-6-2.2-9.3-5.3-16C181.9,27.2,171,16.7,166,14l-4.5-2.5-50-.2C84,11.3,60.4,11.5,59,11.8Z" transform="translate(-15.8 -11.3)"/></svg>