<svg id="OBJECTS" xmlns="http://www.w3.org/2000/svg" viewBox="0 0 106.01 70.68"><defs><style>.cls-1{fill:#ae62f8;}.cls-2{fill:#5304bf;}</style></defs><title>logo3</title><path class="cls-1" d="M115.36,125.85c0,19.52,11.86,35.34,26.49,35.34a21.56,21.56,0,0,0,13.26-4.73c-7.93-6.1-13.26-17.53-13.26-30.61s5.33-24.5,13.26-30.6a21.56,21.56,0,0,0-13.26-4.73C127.22,90.52,115.36,106.33,115.36,125.85Z" transform="translate(-115.36 -90.52)"/><path class="cls-2" d="M155.11,95.25c5.56,4.29,9.84,11.21,11.9,19.48a12.43,12.43,0,1,0,2.7,0c2-8.28,6.33-15.2,11.9-19.48a20.92,20.92,0,0,0-26.5,0Z" transform="translate(-115.36 -90.52)"/><path class="cls-1" d="M194.86,90.52a21.51,21.51,0,0,0-13.25,4.73c7.92,6.1,13.25,17.53,13.25,30.6s-5.33,24.49-13.25,30.61a21.51,21.51,0,0,0,13.25,4.73c14.64,0,26.51-15.82,26.51-35.34S209.5,90.52,194.86,90.52Z" transform="translate(-115.36 -90.52)"/></svg>